Yusuf Roadsinger Live In Australia Mp4 720p AAC Multichannel

01. Lilywhite
02. The Wind
03. Midday (Avoid City After Dark)
04. Cat Medley
05. Full My Eyes
06. Boots & Sand
07. Miles From Nowhere
08. The Story Of Stormy & His Moonshadow
09. World Of Darkness / Jorney To The Dark Planet
10. Maybe There's A World / Beneath The Jacaranda
11. Matthew & Son / Working All Night
12. But I Might Day Tonight / Down On The Street
13. Remember The Day (Of The Old School Yard) / Rooftop Memories
14. Doors / An Opening
15. On The Road To Findout / So Much Left To Know
16. Roadsinger
17. Don't Be Shy
18. Just Another Night
19. Bad Brakes
20. Be What You Must / Sitting
21. Morning Has Broken
22. Wild World
23. Father & Son

General
Yusuf Roadsinger Live In Australia Mp4 720p AAC Multichannel.mp4
Format : MPEG-4
Format profile : Base Media
Codec ID : isom
File size : 1.06 GiB
Duration : 1h 17mn
Overall bit rate mode : Variable
Overall bit rate : 1 978 Kbps
Encoded date : UTC 2012-12-31 05:50:40
Tagged date : UTC 2012-12-31 05:50:40

Video
ID : 1
Format : AVC
Format/Info : Advanced Video Codec
Format profile : High@L4.0
Format settings, CABAC : Yes
Format settings, ReFrames : 3 frames
Codec ID : avc1
Codec ID/Info : Advanced Video Coding
Duration : 1h 17mn
Bit rate mode : Variable
Bit rate : 1 654 Kbps
Maximum bit rate : 25.0 Mbps
Width : 1 280 pixels
Height : 720 pixels
Display aspect ratio : 16:9
Frame rate mode : Constant
Frame rate : 25.000 fps
Color space : YUV
Chroma subsampling : 4:2:0
Bit depth : 8 bits
Scan type : Progressive
Bits/(Pixel*Frame) : 0.072
Stream size : 912 MiB (84%)
Writing library : x264 core 125 r2208 d9d2288
Encoding settings : cabac=1 / ref=3 / deblock=1:0:0 / analyse=0x3:0x113 / me=hex / subme=7 / psy=1 / psy_rd=1.00:0.00 / mixed_ref=1 / me_range=16 / chroma_me=1 / trellis=1 / 8x8dct=1 / cqm=0 / deadzone=21,11 / fast_pskip=1 / chroma_qp_offset=-2 / threads=12 / lookahead_threads=2 / sliced_threads=0 / nr=0 / decimate=1 / interlaced=0 / bluray_compat=0 / constrained_intra=0 / bframes=3 / b_pyramid=0 / b_adapt=1 / b_bias=0 / direct=1 / weightb=1 / open_gop=0 / weightp=2 / keyint=250 / keyint_min=25 / scenecut=40 / intra_refresh=0 / rc_lookahead=40 / rc=crf / mbtree=1 / crf=24.0 / qcomp=0.60 / qpmin=0 / qpmax=69 / qpstep=4 / vbv_maxrate=25000 / vbv_bufsize=25000 / crf_max=0.0 / nal_hrd=vbr / ip_ratio=1.40 / aq=1:1.00
Encoded date : UTC 2012-12-31 05:50:40
Tagged date : UTC 2012-12-31 05:50:56

Audio
ID : 2
Format : AAC
Format/Info : Advanced Audio Codec
Format profile : LC
Codec ID : 40
Duration : 1h 17mn
Bit rate mode : Variable
Bit rate : 320 Kbps
Maximum bit rate : 334 Kbps
Channel(s) : 6 channels
Channel positions : Front: L C R, Side: L R, LFE
Sampling rate : 48.0 KHz
Compression mode : Lossy
Stream size : 176 MiB (16%)
Title : pés
Language : English
Encoded date : UTC 2012-12-31 05:50:51
Tagged date : UTC 2012-12-31 05:50:56 